<?xml version="1.0" standalone="no"?>
<!DOCTYPE svg PUBLIC "-//W3C//DTD SVG 20010904//EN"
 "http://www.w3.org/TR/2001/REC-SVG-20010904/DTD/svg10.dtd">
<svg version="1.0" xmlns="http://www.w3.org/2000/svg"
 width="461.000000pt" height="461.000000pt" viewBox="0 0 461.000000 461.000000"
 preserveAspectRatio="xMidYMid meet">

<g transform="translate(0.000000,461.000000) scale(0.100000,-0.100000)"
fill="#000000" stroke="none">
<path d="M2928 4288 c-17 -30 -17 -595 0 -798 12 -141 29 -279 37 -310 4 -13
-25 -15 -218 -16 -240 0 -322 -12 -502 -70 l-80 -26 -82 47 c-306 172 -746
297 -1098 311 -148 7 -195 -1 -195 -33 0 -29 122 -138 242 -216 199 -131 476
-266 751 -368 114 -41 118 -44 113 -69 -13 -56 -36 -217 -36 -247 0 -41 -9
-41 -93 -3 -98 44 -304 113 -462 153 -189 49 -363 77 -524 84 l-134 6 5 -34
c21 -130 314 -764 360 -781 7 -3 117 -6 243 -7 127 -1 255 -5 285 -9 47 -6 55
-10 52 -27 -2 -11 -30 -112 -63 -225 -33 -113 -58 -211 -57 -219 2 -8 68 -38
153 -70 157 -59 163 -63 180 -133 8 -30 8 -30 -63 -48 -23 -6 -57 -24 -74 -39
l-32 -28 -54 58 c-30 33 -62 59 -73 59 -12 0 -25 -16 -39 -48 -19 -40 -21 -59
-17 -128 15 -220 147 -558 257 -657 41 -38 67 -46 87 -26 7 7 23 7 54 -1 47
-13 300 -16 407 -4 57 6 62 5 62 -14 0 -32 22 -44 59 -31 27 9 35 8 51 -6 17
-15 22 -16 36 -4 12 10 20 10 35 1 16 -10 25 -10 49 5 27 16 30 16 48 0 24
-22 29 -22 64 8 24 21 36 24 68 19 21 -3 46 -2 56 4 14 8 25 5 47 -14 33 -28
55 -30 72 -8 11 16 14 16 43 -2 25 -14 34 -16 44 -6 7 7 24 12 38 12 31 0 110
36 110 50 0 6 57 10 143 11 78 0 185 6 237 13 88 12 97 11 119 -6 46 -35 90
-14 149 71 97 138 172 395 172 591 0 81 -2 90 -30 128 -17 23 -35 42 -40 42
-30 0 -89 -53 -115 -103 l-29 -56 -51 43 c-27 24 -70 53 -93 65 -40 20 -48 32
-97 134 -60 125 -80 182 -101 277 -24 115 -21 131 42 202 55 61 117 159 145
228 8 21 14 70 14 120 0 75 -6 102 -47 225 -26 77 -61 197 -78 267 -16 70 -43
163 -59 205 -27 72 -29 92 -35 248 -11 329 -82 630 -215 910 -64 135 -113 215
-167 274 -41 47 -58 51 -76 19z m127 -382 c26 -8 71 -31 101 -50 53 -36 53
-36 88 -146 64 -200 106 -460 106 -649 l0 -85 -35 34 c-49 47 -55 30 -12 -33
68 -104 97 -176 146 -369 27 -106 57 -210 65 -230 19 -45 19 -48 4 -48 -7 0
-29 -5 -50 -10 -150 -42 -152 -288 -3 -345 25 -10 45 -21 45 -25 0 -12 -70
-102 -124 -159 -64 -67 -203 -175 -284 -221 -64 -37 -76 -50 -42 -50 32 0 127
52 210 115 l75 56 7 -28 c3 -15 16 -68 27 -116 11 -49 44 -141 73 -204 29 -64
54 -120 56 -124 2 -4 -14 -13 -36 -18 -36 -10 -91 -55 -81 -66 3 -2 29 4 57
15 29 11 64 20 78 20 40 0 92 -29 150 -84 l54 -51 -36 -100 c-21 -60 -38 -128
-41 -170 -8 -97 9 -77 46 55 28 99 90 265 112 299 7 11 8 -9 4 -66 -4 -51 -3
-83 3 -83 15 0 24 26 43 130 l19 95 -5 -118 c-3 -90 -1 -117 8 -114 6 2 17 21
24 43 l11 39 1 -38 c2 -96 -59 -317 -121 -440 -32 -64 -93 -137 -115 -137 -7
0 -23 16 -34 35 -24 39 -34 44 -42 16 -6 -26 -40 -30 -283 -37 -152 -5 -213
-4 -218 5 -4 6 29 79 73 163 96 186 146 316 177 468 32 154 38 387 9 359 -2
-3 -12 -72 -20 -155 -28 -267 -68 -397 -208 -667 l-82 -157 17 -30 c19 -33 6
-41 -23 -14 -23 21 -43 10 -29 -17 14 -25 -2 -25 -25 1 -20 22 -35 18 -35 -10
0 -19 -1 -19 -35 1 -36 22 -55 19 -55 -8 0 -13 -6 -11 -27 9 -21 20 -32 24
-45 17 -31 -17 -45 33 -51 191 -4 80 -11 182 -17 227 -10 75 -8 94 20 234 17
84 28 154 25 157 -12 12 -29 -20 -50 -94 -15 -51 -24 -71 -28 -58 -3 10 -13
53 -22 94 -20 83 -57 166 -63 138 -1 -9 10 -83 27 -165 40 -196 60 -365 68
-548 4 -104 10 -157 20 -173 13 -22 13 -22 -12 -16 -19 5 -35 0 -55 -15 -35
-25 -39 -26 -56 -3 -12 16 -15 16 -45 -1 -28 -16 -33 -16 -48 -3 -15 14 -20
14 -40 0 -20 -15 -23 -15 -35 1 -11 15 -16 16 -35 5 -28 -15 -36 -8 -22 18 6
12 11 27 11 34 0 8 -41 84 -92 168 -138 234 -233 449 -274 623 -12 51 -27 30
-22 -31 12 -127 106 -346 263 -612 47 -79 85 -147 85 -151 0 -21 -461 -32
-496 -12 -18 10 -22 25 -27 94 -3 51 -11 87 -20 96 -12 13 -15 2 -21 -86 -4
-55 -13 -104 -19 -108 -17 -10 -80 68 -126 156 -47 91 -104 253 -131 379 -25
110 -25 125 0 84 11 -17 24 -32 30 -32 13 0 13 2 -4 63 -19 68 -27 129 -17
123 5 -3 11 -28 14 -55 6 -52 41 -131 57 -131 14 0 13 13 -6 77 -9 30 -14 56
-12 59 3 2 35 -49 71 -113 89 -159 86 -154 86 -118 1 17 -15 63 -34 103 -40
85 -37 99 33 133 53 26 120 20 193 -17 60 -30 73 -31 59 -5 -5 11 -39 34 -74
51 l-64 32 17 41 c31 72 83 255 105 368 l21 109 55 -55 c60 -61 174 -125 221
-125 16 0 29 3 29 8 0 4 -36 24 -80 45 -183 86 -269 225 -291 472 -17 176 -17
527 -1 600 22 100 19 95 68 95 40 0 61 16 32 24 -157 47 -212 65 -308 103 -63
25 -195 84 -293 131 -178 86 -179 86 -205 137 -19 38 -27 70 -30 131 -2 47 0
84 5 87 6 4 76 -7 157 -23 291 -59 626 -191 825 -324 46 -31 86 -56 88 -56 12
0 -1 28 -24 52 l-26 27 29 11 c195 75 557 103 764 60 108 -22 120 -24 120 -11
0 5 -24 19 -54 31 -37 15 -56 29 -60 43 -20 82 -56 504 -56 670 l0 67 28 0
c16 0 50 -6 77 -14z m-2160 -1217 c132 -13 360 -59 513 -103 105 -31 404 -142
438 -164 8 -4 16 -78 23 -207 5 -110 17 -237 26 -281 l17 -82 -68 -93 c-80
-110 -144 -209 -144 -220 0 -5 40 -29 90 -54 50 -25 90 -49 90 -53 0 -5 -11
-39 -24 -78 -22 -65 -24 -68 -34 -43 -11 28 -45 45 -207 104 -55 20 -100 37
-102 38 -1 2 27 104 62 228 36 123 65 231 65 240 0 9 -10 20 -22 23 -13 4
-151 9 -306 13 l-284 6 -23 37 c-87 138 -327 684 -309 703 5 5 35 3 199 -14z
m1034 -1076 c-16 -70 -32 -134 -34 -141 -3 -9 -25 -2 -75 23 -38 19 -70 38
-70 42 0 3 39 67 87 141 l86 134 19 -35 c18 -36 18 -37 -13 -164z"/>
<path d="M3157 2698 c-87 -51 -100 -165 -27 -238 76 -76 189 -60 234 34 63
133 -83 278 -207 204z m93 -59 c16 -28 -11 -69 -45 -69 -33 0 -61 41 -46 69
24 45 68 45 91 0z"/>
<path d="M2243 2641 c-50 -36 -67 -76 -61 -142 9 -91 99 -154 186 -129 74 21
112 70 112 145 0 129 -134 201 -237 126z m129 -28 c36 -32 17 -83 -32 -83 -33
0 -50 17 -50 52 0 44 48 62 82 31z"/>
<path d="M2855 2466 c-16 -12 -17 -16 -6 -30 19 -22 58 -20 71 4 6 11 8 25 5
30 -9 14 -48 12 -70 -4z"/>
<path d="M2780 2310 c-127 -61 -154 -66 -219 -47 -42 12 -51 12 -51 1 0 -7 9
-19 19 -26 14 -10 26 -43 41 -119 60 -296 202 -470 329 -404 86 44 182 235
226 447 13 61 21 78 48 100 39 32 31 44 -18 28 -43 -14 -65 -9 -168 36 -43 19
-83 34 -90 34 -7 0 -59 -23 -117 -50z m154 -210 c23 -11 58 -34 79 -51 46 -38
45 -44 -13 -165 -71 -146 -147 -182 -230 -108 -43 39 -87 110 -115 187 l-18
48 29 30 c71 75 184 100 268 59z"/>
<path d="M2094 2240 c-59 -13 -105 -50 -130 -104 -13 -28 -24 -58 -24 -66 0
-65 58 -152 117 -176 98 -41 214 14 244 116 39 129 -79 259 -207 230z"/>
</g>
</svg>
